# xmcd CD database file
#
# Track frame offsets:
#	150
#	24828
#	48809
#	72890
#	93674
#	121125
#	142827
#	166148
#	188281
#	214145
#	241694
#	268138
#
# Disc length: 4227 seconds
#
# Revision: 0
# Processed by: cddbd v1.5.1PL2 Copyright (c) Steve Scherf et al.
# Submitted via: Feurio! 1.61 - http://www.feurio.com
#
DISCID=9210810c
DTITLE=John Mayall's Bluesbreakers feat. Walter Trout - Blues Breaker
DYEAR=1900
DGENRE=
TTITLE0=Chicago line
TTITLE1=Gimme one more day
TTITLE2=One life to live
TTITLE3=The last time
TTITLE4=Dream about the blues
TTITLE5=Fascinatin' lover
TTITLE6=Cold blooded woman
TTITLE7=The dirty dozen
TTITLE8=Tears come rollin' down
TTITLE9=Life in the jungle
TTITLE10=Ridin' on the L and N (live)
TTITLE11=Room to move (live)
EXTD=
EXTT0=
EXTT1=
EXTT2=
EXTT3=
EXTT4=
EXTT5=
EXTT6=
EXTT7=
EXTT8=
EXTT9=
EXTT10=
EXTT11=
PLAYORDER=
